<svg width="430" height="244" viewBox="0 0 430 244" fill="none" xmlns="http://www.w3.org/2000/svg">
<path d="M76.5319 55.0553C78.3173 51.361 82.1757 49.1314 86.2649 49.431L177.093 56.0852C181.602 56.4156 185.328 59.7342 186.177 64.1781L202.495 149.507C203.295 153.69 201.36 157.922 197.673 160.053L116.543 206.935C112.857 209.065 108.227 208.627 105.008 205.842L39.3356 149.033C35.9154 146.075 34.9067 141.186 36.8756 137.112L76.5319 55.0553Z" fill="#775CD6"/>
<path d="M93.7393 52.753C95.5247 49.0587 99.383 46.829 103.472 47.1286L194.3 53.7829C198.81 54.1133 202.535 57.4319 203.385 61.8758L219.702 147.204C220.502 151.388 218.567 155.62 214.881 157.75L133.751 204.633C130.064 206.763 125.434 206.324 122.215 203.539L56.5429 146.731C53.1228 143.772 52.114 138.884 54.083 134.81L93.7393 52.753Z" fill="#572EE5"/>
<path d="M123.429 152.353C123.429 152.76 123.382 153.228 123.289 153.76C123.226 154.291 123.023 154.807 122.679 155.307C122.367 155.775 121.898 156.182 121.273 156.525C120.648 156.869 119.804 157.041 118.742 157.041C117.554 157.041 116.617 156.885 115.929 156.572C115.242 156.228 114.71 155.822 114.335 155.353C113.992 154.853 113.757 154.338 113.632 153.807C113.539 153.275 113.492 152.791 113.492 152.353V149.541C111.992 151.76 110.07 153.572 107.726 154.978C105.414 156.353 102.554 157.041 99.1479 157.041C98.5541 157.041 97.6323 156.994 96.3823 156.9C95.1323 156.807 93.726 156.557 92.1635 156.15C90.601 155.744 88.9916 155.135 87.3354 154.322C85.6791 153.51 84.1635 152.385 82.7885 150.947C81.4448 149.478 80.3354 147.666 79.4604 145.51C78.5854 143.322 78.1479 140.666 78.1479 137.541V111.291C78.1479 108.728 78.4604 106.463 79.0854 104.494C79.7104 102.525 80.5229 100.822 81.5229 99.3847C82.5541 97.9159 83.726 96.6972 85.0385 95.7284C86.351 94.7284 87.6948 93.9003 89.0698 93.244C92.2573 91.744 95.8979 90.8847 99.9916 90.6659C103.46 90.6659 106.429 91.0565 108.898 91.8378C111.367 92.619 113.46 93.6347 115.179 94.8847C116.898 96.1347 118.273 97.5565 119.304 99.1503C120.335 100.713 121.132 102.307 121.695 103.932C122.257 105.557 122.617 107.119 122.773 108.619C122.96 110.119 123.054 111.416 123.054 112.51C123.054 112.978 123.007 113.557 122.914 114.244C122.851 114.9 122.585 115.541 122.117 116.166C121.648 116.76 120.898 117.275 119.867 117.713C118.867 118.119 117.429 118.322 115.554 118.322C114.898 118.322 114.085 118.291 113.117 118.228C112.179 118.135 111.273 117.932 110.398 117.619C109.523 117.307 108.773 116.853 108.148 116.26C107.523 115.635 107.21 114.791 107.21 113.728C107.21 112.041 107.101 110.541 106.882 109.228C106.695 107.885 106.335 106.744 105.804 105.807C105.273 104.869 104.539 104.166 103.601 103.697C102.664 103.197 101.46 102.947 99.9916 102.947C98.4604 102.947 97.2729 103.26 96.4291 103.885C95.6166 104.51 95.0229 105.197 94.6479 105.947C94.2104 106.822 93.9604 107.822 93.8979 108.947V138.947C93.8979 139.947 94.0698 140.885 94.4135 141.76C94.7885 142.635 95.3041 143.4 95.9604 144.057C96.6166 144.713 97.3823 145.228 98.2573 145.603C99.1635 145.978 100.148 146.166 101.21 146.166C102.46 146.166 103.585 145.9 104.585 145.369C105.617 144.807 106.539 144.072 107.351 143.166C108.164 142.228 108.882 141.182 109.507 140.025C110.164 138.838 110.742 137.603 111.242 136.322H106.742C105.835 136.228 105.039 135.994 104.351 135.619C103.726 135.307 103.164 134.838 102.664 134.213C102.195 133.588 101.96 132.728 101.96 131.635C101.96 130.447 102.195 129.541 102.664 128.916C103.164 128.26 103.726 127.775 104.351 127.463C105.039 127.119 105.835 126.916 106.742 126.853H118.929C119.148 126.853 119.492 126.9 119.96 126.994C120.46 127.057 120.96 127.275 121.46 127.65C121.992 128.025 122.445 128.588 122.82 129.338C123.226 130.057 123.429 131.072 123.429 132.385V152.353ZM135.242 101.822C135.242 100.478 135.304 99.1659 135.429 97.8847C135.585 96.6034 135.914 95.4628 136.414 94.4628C136.945 93.4315 137.726 92.6034 138.757 91.9784C139.789 91.3534 141.21 91.0409 143.023 91.0409C144.835 91.0409 146.257 91.3534 147.289 91.9784C148.32 92.6034 149.085 93.4315 149.585 94.4628C150.117 95.4628 150.445 96.6034 150.57 97.8847C150.726 99.1659 150.804 100.478 150.804 101.822V145.885C150.804 147.26 150.742 148.588 150.617 149.869C150.492 151.15 150.164 152.307 149.632 153.338C149.132 154.338 148.351 155.15 147.289 155.775C146.257 156.369 144.835 156.666 143.023 156.666C141.21 156.666 139.789 156.369 138.757 155.775C137.726 155.15 136.945 154.338 136.414 153.338C135.914 152.307 135.585 151.15 135.429 149.869C135.304 148.588 135.242 147.26 135.242 145.885V101.822ZM190.554 91.0409C191.804 91.0409 193.07 91.1034 194.351 91.2284C195.632 91.3534 196.789 91.6503 197.82 92.119C198.851 92.5878 199.695 93.2909 200.351 94.2284C201.007 95.1347 201.335 96.3847 201.335 97.9784C201.335 99.5722 201.007 100.838 200.351 101.775C199.695 102.682 198.851 103.369 197.82 103.838C196.789 104.307 195.632 104.603 194.351 104.728C193.07 104.853 191.804 104.916 190.554 104.916H179.398V117.103H185.304C186.523 117.103 187.773 117.15 189.054 117.244C190.335 117.338 191.492 117.603 192.523 118.041C193.554 118.478 194.398 119.166 195.054 120.103C195.742 121.041 196.085 122.353 196.085 124.041C196.085 125.728 195.757 127.041 195.101 127.978C194.445 128.916 193.601 129.603 192.57 130.041C191.539 130.478 190.382 130.744 189.101 130.838C187.82 130.932 186.554 130.978 185.304 130.978H179.398V145.885C179.398 147.26 179.351 148.588 179.257 149.869C179.195 151.15 178.929 152.307 178.46 153.338C178.023 154.338 177.32 155.15 176.351 155.775C175.382 156.369 174.023 156.666 172.273 156.666C170.492 156.666 169.117 156.369 168.148 155.775C167.179 155.15 166.476 154.338 166.039 153.338C165.601 152.307 165.335 151.15 165.242 149.869C165.179 148.588 165.148 147.26 165.148 145.885V101.822C165.148 100.478 165.179 99.1659 165.242 97.8847C165.335 96.6034 165.601 95.4628 166.039 94.4628C166.476 93.4315 167.179 92.6034 168.148 91.9784C169.117 91.3534 170.492 91.0409 172.273 91.0409H190.554ZM206.21 127.416C206.21 124.541 206.601 122.103 207.382 120.103C208.164 118.103 209.164 116.432 210.382 115.088C211.632 113.744 213.007 112.697 214.507 111.947C216.039 111.197 217.539 110.635 219.007 110.26C220.476 109.885 221.835 109.65 223.085 109.557C224.367 109.463 225.367 109.416 226.085 109.416C226.804 109.416 227.789 109.463 229.039 109.557C230.289 109.65 231.617 109.885 233.023 110.26C234.46 110.635 235.898 111.197 237.335 111.947C238.804 112.697 240.117 113.744 241.273 115.088C242.46 116.432 243.429 118.103 244.179 120.103C244.929 122.103 245.304 124.541 245.304 127.416V139.041C245.304 141.916 244.929 144.353 244.179 146.353C243.429 148.353 242.46 150.025 241.273 151.369C240.117 152.713 238.804 153.76 237.335 154.51C235.898 155.26 234.46 155.822 233.023 156.197C231.617 156.572 230.289 156.807 229.039 156.9C227.789 156.994 226.804 157.041 226.085 157.041C225.367 157.041 224.367 156.994 223.085 156.9C221.835 156.807 220.476 156.572 219.007 156.197C217.539 155.822 216.039 155.26 214.507 154.51C213.007 153.76 211.632 152.713 210.382 151.369C209.164 150.025 208.164 148.353 207.382 146.353C206.601 144.353 206.21 141.916 206.21 139.041V127.416ZM220.648 142.322C220.679 143.228 220.898 144.025 221.304 144.713C221.648 145.338 222.179 145.9 222.898 146.4C223.648 146.869 224.71 147.103 226.085 147.103C227.398 147.103 228.398 146.869 229.085 146.4C229.804 145.9 230.335 145.338 230.679 144.713C231.054 144.025 231.273 143.228 231.335 142.322V125.353C231.273 124.416 231.054 123.557 230.679 122.775C230.335 122.15 229.804 121.572 229.085 121.041C228.398 120.478 227.398 120.197 226.085 120.197C224.71 120.197 223.648 120.478 222.898 121.041C222.179 121.572 221.648 122.15 221.304 122.775C220.898 123.557 220.679 124.416 220.648 125.353V142.322ZM267.054 122.072C267.054 122.697 267.257 123.275 267.664 123.807C268.07 124.338 268.617 124.853 269.304 125.353C270.023 125.822 270.835 126.291 271.742 126.76C272.679 127.228 273.648 127.697 274.648 128.166C276.179 128.916 277.742 129.728 279.335 130.603C280.929 131.447 282.382 132.447 283.695 133.603C285.007 134.76 286.07 136.103 286.882 137.635C287.726 139.135 288.148 140.916 288.148 142.978C288.148 144.853 287.867 146.51 287.304 147.947C286.773 149.385 286.054 150.635 285.148 151.697C284.242 152.728 283.179 153.588 281.96 154.275C280.773 154.963 279.507 155.51 278.164 155.916C276.851 156.322 275.507 156.603 274.132 156.76C272.757 156.947 271.46 157.041 270.242 157.041C267.835 157.041 265.742 156.838 263.96 156.432C262.179 156.025 260.648 155.494 259.367 154.838C258.085 154.15 257.023 153.385 256.179 152.541C255.367 151.666 254.726 150.76 254.257 149.822C253.789 148.885 253.46 147.963 253.273 147.057C253.085 146.119 252.992 145.26 252.992 144.478C252.992 142.603 253.507 141.228 254.539 140.353C255.601 139.478 257.21 139.041 259.367 139.041C260.929 139.041 262.21 139.463 263.21 140.307C264.21 141.15 264.742 142.51 264.804 144.385C264.835 145.01 265.007 145.51 265.32 145.885C265.664 146.26 266.085 146.572 266.585 146.822C267.117 147.041 267.695 147.197 268.32 147.291C268.945 147.353 269.554 147.385 270.148 147.385C271.367 147.385 272.351 147.072 273.101 146.447C273.882 145.791 274.273 144.947 274.273 143.916C274.273 143.041 274.007 142.228 273.476 141.478C272.976 140.697 272.304 139.978 271.46 139.322C270.617 138.666 269.648 138.041 268.554 137.447C267.492 136.822 266.398 136.197 265.273 135.572C263.867 134.822 262.445 134.025 261.007 133.182C259.601 132.338 258.32 131.4 257.164 130.369C256.007 129.338 255.07 128.182 254.351 126.9C253.632 125.588 253.273 124.103 253.273 122.447C253.273 120.01 253.664 117.978 254.445 116.353C255.257 114.697 256.429 113.369 257.96 112.369C259.492 111.338 261.351 110.603 263.539 110.166C265.757 109.728 268.273 109.478 271.085 109.416H271.835C274.367 109.416 276.507 109.635 278.257 110.072C280.039 110.51 281.507 111.088 282.664 111.807C283.851 112.494 284.773 113.275 285.429 114.15C286.117 115.025 286.617 115.916 286.929 116.822C287.273 117.697 287.476 118.541 287.539 119.353C287.632 120.166 287.679 120.853 287.679 121.416C287.679 122.353 287.476 123.135 287.07 123.76C286.695 124.353 286.179 124.838 285.523 125.213C284.898 125.557 284.179 125.807 283.367 125.963C282.554 126.088 281.71 126.166 280.835 126.197C280.085 126.197 279.398 126.072 278.773 125.822C278.179 125.572 277.664 125.26 277.226 124.885C276.789 124.51 276.445 124.088 276.195 123.619C275.976 123.15 275.867 122.697 275.867 122.26C275.804 121.072 275.32 120.166 274.414 119.541C273.539 118.916 272.46 118.603 271.179 118.603C270.648 118.603 270.132 118.666 269.632 118.791C269.164 118.885 268.726 119.072 268.32 119.353C267.945 119.603 267.632 119.947 267.382 120.385C267.164 120.822 267.054 121.385 267.054 122.072Z" fill="black"/>
<path d="M134.412 72.4573C137.68 65.4243 147.679 65.4243 150.947 72.4573C153.755 78.5003 149.343 85.4159 142.679 85.4159C136.016 85.4159 131.603 78.5003 134.412 72.4573Z" fill="black"/>
<path d="M202.835 127.416C202.835 124.541 203.226 122.103 204.007 120.103C204.789 118.103 205.789 116.432 207.007 115.088C208.257 113.744 209.632 112.697 211.132 111.947C212.664 111.197 214.164 110.635 215.632 110.26C217.101 109.885 218.46 109.65 219.71 109.557C220.992 109.463 221.992 109.416 222.71 109.416C223.429 109.416 224.414 109.463 225.664 109.557C226.914 109.65 228.242 109.885 229.648 110.26C231.085 110.635 232.523 111.197 233.96 111.947C235.429 112.697 236.742 113.744 237.898 115.088C239.085 116.432 240.054 118.103 240.804 120.103C241.554 122.103 241.929 124.541 241.929 127.416V139.041C241.929 141.916 241.554 144.353 240.804 146.353C240.054 148.353 239.085 150.025 237.898 151.369C236.742 152.713 235.429 153.76 233.96 154.51C232.523 155.26 231.085 155.822 229.648 156.197C228.242 156.572 226.914 156.807 225.664 156.9C224.414 156.994 223.429 157.041 222.71 157.041C221.992 157.041 220.992 156.994 219.71 156.9C218.46 156.807 217.101 156.572 215.632 156.197C214.164 155.822 212.664 155.26 211.132 154.51C209.632 153.76 208.257 152.713 207.007 151.369C205.789 150.025 204.789 148.353 204.007 146.353C203.226 144.353 202.835 141.916 202.835 139.041V127.416ZM217.273 142.322C217.304 143.228 217.523 144.025 217.929 144.713C218.273 145.338 218.804 145.9 219.523 146.4C220.273 146.869 221.335 147.103 222.71 147.103C224.023 147.103 225.023 146.869 225.71 146.4C226.429 145.9 226.96 145.338 227.304 144.713C227.679 144.025 227.898 143.228 227.96 142.322V125.353C227.898 124.416 227.679 123.557 227.304 122.775C226.96 122.15 226.429 121.572 225.71 121.041C225.023 120.478 224.023 120.197 222.71 120.197C221.335 120.197 220.273 120.478 219.523 121.041C218.804 121.572 218.273 122.15 217.929 122.775C217.523 123.557 217.304 124.416 217.273 125.353V142.322ZM263.679 122.072C263.679 122.697 263.882 123.275 264.289 123.807C264.695 124.338 265.242 124.853 265.929 125.353C266.648 125.822 267.46 126.291 268.367 126.76C269.304 127.228 270.273 127.697 271.273 128.166C272.804 128.916 274.367 129.728 275.96 130.603C277.554 131.447 279.007 132.447 280.32 133.603C281.632 134.76 282.695 136.103 283.507 137.635C284.351 139.135 284.773 140.916 284.773 142.978C284.773 144.853 284.492 146.51 283.929 147.947C283.398 149.385 282.679 150.635 281.773 151.697C280.867 152.728 279.804 153.588 278.585 154.275C277.398 154.963 276.132 155.51 274.789 155.916C273.476 156.322 272.132 156.603 270.757 156.76C269.382 156.947 268.085 157.041 266.867 157.041C264.46 157.041 262.367 156.838 260.585 156.432C258.804 156.025 257.273 155.494 255.992 154.838C254.71 154.15 253.648 153.385 252.804 152.541C251.992 151.666 251.351 150.76 250.882 149.822C250.414 148.885 250.085 147.963 249.898 147.057C249.71 146.119 249.617 145.26 249.617 144.478C249.617 142.603 250.132 141.228 251.164 140.353C252.226 139.478 253.835 139.041 255.992 139.041C257.554 139.041 258.835 139.463 259.835 140.307C260.835 141.15 261.367 142.51 261.429 144.385C261.46 145.01 261.632 145.51 261.945 145.885C262.289 146.26 262.71 146.572 263.21 146.822C263.742 147.041 264.32 147.197 264.945 147.291C265.57 147.353 266.179 147.385 266.773 147.385C267.992 147.385 268.976 147.072 269.726 146.447C270.507 145.791 270.898 144.947 270.898 143.916C270.898 143.041 270.632 142.228 270.101 141.478C269.601 140.697 268.929 139.978 268.085 139.322C267.242 138.666 266.273 138.041 265.179 137.447C264.117 136.822 263.023 136.197 261.898 135.572C260.492 134.822 259.07 134.025 257.632 133.182C256.226 132.338 254.945 131.4 253.789 130.369C252.632 129.338 251.695 128.182 250.976 126.9C250.257 125.588 249.898 124.103 249.898 122.447C249.898 120.01 250.289 117.978 251.07 116.353C251.882 114.697 253.054 113.369 254.585 112.369C256.117 111.338 257.976 110.603 260.164 110.166C262.382 109.728 264.898 109.478 267.71 109.416H268.46C270.992 109.416 273.132 109.635 274.882 110.072C276.664 110.51 278.132 111.088 279.289 111.807C280.476 112.494 281.398 113.275 282.054 114.15C282.742 115.025 283.242 115.916 283.554 116.822C283.898 117.697 284.101 118.541 284.164 119.353C284.257 120.166 284.304 120.853 284.304 121.416C284.304 122.353 284.101 123.135 283.695 123.76C283.32 124.353 282.804 124.838 282.148 125.213C281.523 125.557 280.804 125.807 279.992 125.963C279.179 126.088 278.335 126.166 277.46 126.197C276.71 126.197 276.023 126.072 275.398 125.822C274.804 125.572 274.289 125.26 273.851 124.885C273.414 124.51 273.07 124.088 272.82 123.619C272.601 123.15 272.492 122.697 272.492 122.26C272.429 121.072 271.945 120.166 271.039 119.541C270.164 118.916 269.085 118.603 267.804 118.603C267.273 118.603 266.757 118.666 266.257 118.791C265.789 118.885 265.351 119.072 264.945 119.353C264.57 119.603 264.257 119.947 264.007 120.385C263.789 120.822 263.679 121.385 263.679 122.072Z" fill="white"/>
</svg>
